<mxfile host="app.diagrams.net" modified="2023-06-16T21:11:00.631Z" agent="Mozilla/5.0 (Macintosh; Intel Mac OS X 10_15_7) AppleWebKit/537.36 (KHTML, like Gecko) Chrome/114.0.0.0 Safari/537.36" version="21.4.1" etag="sCwKLQ_0S-gsRZoJdNsJ" type="github">
  <diagram name="Page-1" id="V2lZ7nyOabDfHVRyFV-G">
    <mxGraphModel>
      <root>
        <mxCell id="0" />
        <mxCell id="1" parent="0" />
      </root>
    </mxGraphModel>
  </diagram>
</mxfile>
